<?xml version="1.0" standalone="no"?>
<!DOCTYPE svg PUBLIC "-//W3C//DTD SVG 20010904//EN"
 "http://www.w3.org/TR/2001/REC-SVG-20010904/DTD/svg10.dtd">
<svg version="1.0" xmlns="http://www.w3.org/2000/svg"
 width="1436.000000pt" height="294.000000pt" viewBox="0 0 1436.000000 294.000000"
 preserveAspectRatio="xMidYMid meet">

<g transform="translate(0.000000,294.000000) scale(0.100000,-0.100000)"
fill="#000000" stroke="none">
<path d="M0 1470 l0 -1470 7180 0 7180 0 0 1470 0 1470 -7180 0 -7180 0 0
-1470z m13797 660 c27 -6 61 -21 76 -33 l27 -22 -20 -43 -19 -43 -54 31 c-70
39 -136 42 -172 5 -54 -53 -26 -100 119 -196 138 -92 171 -134 171 -217 -1
-145 -135 -236 -297 -203 -116 23 -149 61 -113 130 l15 31 45 -35 c43 -32 99
-55 137 -55 35 0 96 32 107 56 27 60 5 91 -122 173 -143 93 -187 147 -187 229
1 86 66 163 158 188 59 16 70 16 129 4z m-10644 -22 c2 -13 2 -151 -2 -308
l-6 -285 -215 -3 c-118 -1 -225 0 -237 3 -23 5 -23 6 -23 205 l0 200 145 0
146 0 -3 -97 -3 -98 -42 -3 -42 -3 -3 48 -3 48 -47 3 -48 3 0 -100 0 -101 145
0 145 0 0 205 0 205 -1217 -2 -1218 -3 -3 -201 -2 -202 22 -3 c13 -2 80 -3
151 -1 l127 3 0 99 c0 108 -1 110 -62 102 l-38 -4 0 -49 0 -49 -45 0 -45 0 0
100 0 100 140 0 140 0 0 -205 0 -205 -237 2 -238 3 -3 308 -2 307 1309 0 1309
0 5 -22z m656 -253 l134 -270 29 65 c40 91 104 233 164 364 44 97 54 111 75
111 23 0 24 -4 31 -75 4 -41 13 -176 19 -300 7 -124 16 -236 21 -248 4 -13 22
-29 38 -35 18 -7 30 -19 30 -29 0 -16 -12 -18 -135 -18 -122 0 -135 2 -135 18
0 9 10 22 22 27 47 21 52 47 42 224 l-9 164 -89 -199 c-49 -109 -94 -205 -99
-211 -5 -7 -20 -13 -32 -13 -17 0 -29 14 -53 63 -17 34 -64 130 -105 214 l-74
152 -7 -91 c-3 -50 -6 -133 -6 -185 l0 -94 35 -20 c19 -12 35 -27 35 -35 0
-12 -20 -14 -112 -12 -78 2 -113 7 -115 15 -3 7 7 17 21 22 56 22 57 29 77
426 6 122 16 226 22 233 5 7 17 12 26 10 10 -2 68 -108 150 -273z m4222 225
c230 -587 223 -572 293 -628 31 -25 4 -32 -130 -32 -125 0 -134 1 -134 19 0
12 9 21 25 25 21 6 25 12 25 47 0 22 -7 53 -15 70 l-16 30 -127 -3 -126 -3
-20 -48 c-22 -53 -17 -73 25 -94 13 -7 24 -18 24 -25 0 -10 -29 -14 -112 -16
-108 -3 -113 -2 -113 18 0 11 6 20 13 20 35 0 70 67 175 330 60 151 113 286
117 300 10 31 23 41 54 38 19 -2 29 -14 42 -48z m1659 -257 c117 -297 142
-346 182 -359 10 -3 18 -14 18 -25 0 -19 -7 -19 -137 -17 -104 2 -138 6 -138
16 0 7 11 18 25 25 31 15 37 60 16 111 l-15 37 -128 -3 c-142 -3 -140 -2 -158
-85 -6 -30 -3 -35 29 -54 66 -39 49 -49 -78 -49 -141 0 -148 5 -76 59 29 22
55 80 175 386 47 121 90 230 95 243 7 16 18 22 39 22 29 0 30 -2 151 -307z
m-4995 280 c0 -6 -15 -22 -34 -35 -23 -15 -38 -35 -44 -58 -5 -19 -7 -140 -5
-269 l5 -234 27 -24 c15 -12 34 -23 42 -23 8 0 14 -9 14 -20 0 -19 -7 -20
-145 -20 -138 0 -145 1 -145 20 0 11 6 20 14 20 8 0 28 11 43 24 l28 24 3 235
c4 276 -1 310 -53 327 -33 11 -44 28 -28 44 13 12 278 2 278 -11z m281 -75
c43 -51 109 -126 145 -168 36 -41 96 -110 132 -153 l67 -79 0 192 c0 118 -4
199 -11 212 -6 11 -26 26 -45 34 -22 9 -34 21 -34 34 0 19 7 20 120 20 112 0
120 -1 120 -19 0 -11 -8 -22 -19 -26 -10 -3 -27 -15 -37 -26 -18 -20 -19 -42
-19 -328 0 -305 0 -306 -21 -309 -23 -3 -17 -10 -294 308 -84 96 -156 177
-161 178 -14 6 -11 -359 4 -388 7 -14 27 -32 44 -40 18 -8 33 -23 33 -32 0
-16 -13 -18 -125 -18 -118 0 -125 1 -125 20 0 11 6 20 14 20 8 0 28 11 43 24
l28 24 0 249 0 248 -27 51 c-15 29 -24 54 -21 58 4 3 29 6 58 6 l51 0 80 -92z
m1058 83 c7 -11 -14 -123 -25 -135 -5 -6 -25 7 -47 32 l-39 42 -82 0 c-78 0
-82 -1 -91 -26 -11 -28 -13 -156 -4 -191 6 -21 12 -23 75 -23 50 0 81 6 114
22 24 12 47 19 51 15 9 -9 -39 -138 -53 -144 -6 -3 -25 5 -41 17 -23 17 -40
21 -88 18 l-59 -3 0 -107 c0 -135 5 -142 103 -141 81 1 125 18 181 69 25 22
46 33 51 28 12 -12 -6 -91 -31 -131 l-21 -33 -248 0 c-141 0 -251 4 -255 9 -7
12 22 41 40 41 7 0 23 12 34 26 20 25 21 39 21 276 0 140 -4 257 -10 267 -5
10 -23 24 -40 31 -18 8 -30 20 -30 31 0 18 12 19 244 19 135 0 247 -4 250 -9z
m556 -18 c63 -31 100 -90 100 -160 0 -30 -7 -67 -14 -82 -18 -34 -81 -91 -101
-91 -23 0 -18 -14 14 -38 17 -12 62 -66 100 -121 72 -100 121 -151 148 -151 8
0 13 -7 11 -17 -2 -14 -15 -19 -52 -21 -28 -2 -60 -1 -73 3 -39 9 -90 62 -172
179 -80 113 -107 136 -161 136 l-30 0 0 -106 c0 -58 5 -114 10 -124 6 -11 28
-25 50 -31 28 -9 40 -18 40 -31 0 -17 -11 -18 -150 -18 -136 0 -150 2 -150 18
0 9 13 23 30 30 43 20 50 59 49 287 -1 258 -5 284 -46 310 -18 11 -32 28 -33
38 0 17 11 18 193 15 174 -3 196 -5 237 -25z m560 9 c0 -11 -11 -24 -25 -30
-19 -9 -25 -19 -25 -42 0 -33 150 -439 163 -440 4 0 7 5 7 11 0 6 34 98 75
206 41 107 75 206 75 219 0 17 -9 30 -30 42 -16 9 -30 25 -30 35 0 16 10 17
112 15 94 -3 113 -6 116 -19 2 -10 -8 -21 -27 -29 -17 -6 -37 -22 -45 -35 -15
-22 -120 -285 -207 -517 -41 -106 -57 -126 -94 -112 -15 6 -21 19 -130 299
-109 278 -143 353 -165 360 -24 8 -43 32 -35 45 4 6 56 10 136 10 119 0 129
-1 129 -18z m1810 7 c121 -27 186 -134 159 -259 -23 -106 -125 -170 -274 -170
-50 0 -75 -4 -78 -12 -7 -23 4 -163 15 -175 5 -7 26 -17 46 -24 38 -12 54 -27
46 -41 -3 -4 -75 -8 -160 -8 -147 0 -154 1 -154 20 0 13 9 22 25 26 53 13 55
27 55 305 l0 257 -41 35 c-25 20 -39 39 -35 46 9 14 332 15 396 0z m1391 -4
c142 -50 174 -231 56 -316 -22 -16 -46 -29 -54 -29 -20 0 -16 -18 6 -25 22 -7
61 -53 147 -174 40 -56 71 -89 97 -103 46 -23 44 -40 -7 -50 -89 -19 -146 22
-252 177 -78 113 -102 135 -153 142 l-41 6 0 -107 c0 -59 4 -115 10 -125 5
-10 28 -26 50 -35 22 -9 40 -23 40 -31 0 -13 -23 -15 -150 -15 -144 0 -150 1
-150 20 0 13 10 24 24 30 14 5 30 18 35 29 15 28 15 502 0 535 -7 13 -25 30
-40 37 -28 11 -37 28 -22 42 3 4 86 7 183 7 134 0 188 -4 221 -15z m935 -7
c-3 -13 -9 -47 -12 -75 -8 -62 -29 -71 -55 -24 -13 23 -28 32 -70 41 -30 7
-65 10 -79 9 l-25 -4 -3 -267 c-2 -258 -2 -268 18 -288 11 -11 34 -23 50 -27
21 -4 30 -11 30 -24 0 -18 -10 -19 -171 -19 l-170 0 3 22 c2 18 12 24 41 29
21 3 45 13 54 22 21 21 28 155 18 380 l-7 177 -40 0 c-61 0 -116 -20 -143 -52
-13 -15 -31 -28 -40 -28 -17 0 -17 30 1 123 l6 27 300 0 300 0 -6 -22z m245
-35 c57 -60 303 -341 351 -403 l28 -35 0 196 c0 181 -2 198 -20 222 -11 13
-31 28 -45 31 -16 4 -25 13 -25 26 0 19 7 20 120 20 114 0 120 -1 120 -20 0
-12 -9 -24 -23 -29 -52 -20 -52 -22 -52 -350 0 -305 0 -306 -21 -309 -23 -3
-49 24 -314 330 -74 86 -138 157 -142 157 -5 1 -8 -87 -8 -194 0 -181 1 -196
20 -215 11 -11 31 -22 45 -26 16 -4 25 -13 25 -25 0 -18 -9 -19 -123 -19 -68
0 -126 3 -130 6 -10 10 4 34 20 34 7 0 25 11 38 25 l25 24 0 260 0 259 -25 30
c-40 48 -34 62 28 62 51 0 54 -2 108 -57z m1099 46 c0 -7 -5 -40 -12 -75 -9
-50 -15 -64 -29 -64 -10 0 -20 9 -24 20 -13 42 -53 60 -129 60 -39 0 -76 -4
-82 -8 -12 -7 -17 -65 -15 -169 l1 -63 70 0 c51 0 82 6 110 20 34 17 70 26 70
17 0 -10 -59 -140 -67 -148 -7 -7 -20 -2 -41 15 -24 21 -40 26 -85 26 -65 0
-67 -3 -67 -100 0 -136 13 -154 117 -153 73 1 142 30 174 74 21 29 43 37 54
19 9 -15 -14 -91 -38 -127 l-22 -33 -252 0 c-217 0 -253 2 -253 15 0 8 15 21
34 29 65 27 66 33 66 311 0 211 -2 254 -16 273 -8 12 -21 22 -28 22 -18 0 -39
27 -31 40 9 15 495 14 495 -1z m503 2 c116 -27 178 -146 133 -254 -15 -36 -79
-97 -101 -97 -22 0 -19 -6 28 -53 23 -23 73 -85 111 -139 47 -64 81 -101 104
-112 50 -24 28 -46 -47 -46 -79 0 -115 28 -205 158 -91 131 -113 152 -165 159
l-41 6 0 -116 c0 -110 1 -117 23 -131 12 -8 34 -18 50 -21 17 -5 27 -14 27
-26 0 -18 -10 -19 -155 -19 -133 0 -155 2 -155 15 0 9 8 18 18 22 9 3 27 15
40 26 22 20 22 23 22 282 0 285 4 266 -59 313 -46 35 -20 42 162 42 95 0 189
-4 210 -9z m-11243 -908 l0 -714 -47 3 -48 3 -2 708 -3 708 21 7 c12 5 34 6
50 4 l29 -4 0 -715z m-585 2 l0 -710 -45 0 -45 0 -3 700 c-1 385 0 706 3 713
3 9 19 12 47 10 l43 -3 0 -710z m295 -1 l0 -715 -47 3 -48 3 -3 713 -2 712 50
0 50 0 0 -716z m580 1 l0 -715 -45 0 -45 0 0 715 0 715 45 0 45 0 0 -715z
m290 0 l0 -715 -45 0 -45 0 0 715 0 715 45 0 45 0 0 -715z m1155 -372 c27 -45
53 -84 56 -88 4 -3 28 31 55 77 53 91 59 98 92 98 22 0 22 -1 22 -151 l0 -150
-32 3 -33 3 0 65 c-1 96 -4 100 -32 45 -54 -106 -74 -109 -128 -17 l-40 67 -3
-83 -3 -82 -34 0 -35 0 0 143 c0 79 3 147 7 151 4 4 19 6 32 4 20 -2 37 -22
76 -85z m445 -20 c5 -112 17 -135 65 -135 48 -1 60 23 65 135 l5 102 30 0 30
0 0 -117 c0 -113 -1 -119 -26 -143 -51 -52 -157 -52 -208 -1 -24 25 -26 34
-29 132 -4 125 -1 136 35 132 l28 -3 5 -102z m418 -15 l3 -117 72 -3 c70 -3
72 -4 75 -30 l3 -28 -110 0 -111 0 0 151 0 150 33 -3 32 -3 3 -117z m470 90
c3 -26 1 -27 -45 -30 l-48 -3 0 -115 0 -115 -37 -3 -38 -3 0 120 0 121 -45 0
c-40 0 -45 2 -45 23 0 13 3 27 7 31 4 3 61 5 127 4 l121 -3 3 -27z m190 -120
l3 -148 -36 0 -35 0 0 151 0 150 33 -3 32 -3 3 -147z m366 135 c44 -20 50 -36
25 -59 -19 -17 -21 -17 -50 0 -56 33 -123 3 -135 -59 -16 -87 82 -144 149 -87
16 14 20 14 39 -6 21 -21 21 -22 3 -42 -28 -31 -89 -44 -144 -30 -75 19 -121
75 -121 147 0 114 127 188 234 136z m244 -105 l3 -117 72 -3 c70 -3 72 -4 75
-30 l3 -28 -110 0 -111 0 0 143 c0 79 3 147 7 151 4 4 19 6 33 4 25 -3 25 -3
28 -120z m340 -30 l3 -148 -35 0 c-30 0 -35 4 -39 28 -7 36 -7 254 0 265 3 4
19 7 36 5 l32 -3 3 -147z m372 122 l0 -30 -75 0 -75 0 0 -30 0 -30 65 0 65 0
0 -30 0 -30 -65 0 -65 0 0 -30 0 -30 80 0 80 0 0 -30 0 -30 -115 0 -115 0 0
150 0 150 110 0 110 0 0 -30z m267 -54 c37 -47 71 -85 76 -85 4 -1 7 38 7 85
l0 85 33 -3 32 -3 3 -147 3 -148 -33 0 c-29 0 -41 10 -103 87 l-70 87 -3 -87
-3 -87 -34 0 -35 0 0 143 c0 79 3 147 7 150 3 4 17 7 29 7 17 0 42 -23 91 -84z
m521 52 c3 -27 2 -28 -42 -28 l-46 0 0 -120 0 -120 -35 0 -34 0 -3 118 -3 117
-47 3 c-42 3 -48 6 -48 26 0 12 3 26 7 30 4 3 61 5 127 4 l121 -3 3 -27z m550
-1 l3 -27 -75 0 -76 0 0 -40 0 -40 65 0 c63 0 65 -1 65 -25 0 -24 -2 -25 -65
-25 l-65 0 0 -56 0 -55 -37 3 -38 3 -3 125 c-4 184 -12 172 116 167 l107 -3 3
-27z m286 11 c14 -22 126 -265 126 -274 0 -2 -16 -4 -35 -4 -28 0 -37 5 -50
30 -15 29 -18 30 -84 30 -68 0 -69 -1 -80 -30 -8 -26 -15 -30 -45 -30 -20 0
-36 3 -36 6 0 7 88 210 112 257 15 30 24 37 48 37 20 0 34 -8 44 -22z m351
-65 c28 -45 53 -84 57 -88 3 -4 27 29 51 72 56 97 62 103 92 103 17 0 25 -6
25 -17 0 -10 1 -76 3 -148 l2 -130 -32 -3 -33 -3 0 81 c0 49 -4 79 -9 75 -6
-3 -25 -32 -43 -65 -44 -82 -62 -80 -113 8 l-40 67 -3 -82 -3 -83 -34 0 -35 0
0 144 c0 142 0 145 23 149 36 7 40 4 92 -80z m445 -63 l0 -150 -35 0 -35 0 0
143 c0 79 3 147 7 150 3 4 19 7 35 7 l28 0 0 -150z m224 134 c3 -9 6 -63 6
-120 l0 -104 70 0 70 0 0 -30 0 -30 -110 0 -110 0 0 143 c0 79 3 147 7 150 13
13 61 7 67 -9z m302 -31 c53 -92 47 -91 91 -20 35 56 44 64 72 65 17 0 31 -3
31 -9 0 -5 -25 -49 -55 -97 -48 -78 -55 -95 -55 -140 l0 -52 -34 0 -34 0 -4
58 c-4 47 -14 72 -56 142 -29 47 -52 88 -52 93 0 4 15 7 34 7 30 0 37 -6 62
-47z m741 21 c50 -38 67 -71 67 -129 0 -91 -62 -149 -159 -149 -88 0 -153 54
-162 136 -11 99 67 172 175 165 32 -2 63 -11 79 -23z m423 -4 l0 -29 -72 -3
-73 -3 0 -35 0 -35 63 -3 c62 -3 63 -4 60 -29 -3 -24 -6 -26 -63 -28 l-60 -2
-3 -51 c-3 -52 -3 -52 -38 -52 -34 0 -34 0 -35 48 -1 39 0 218 1 245 0 4 50 7
110 7 l110 0 0 -30z m348 -2 l3 -28 -76 0 -76 0 3 -37 3 -38 63 -3 c58 -3 62
-4 62 -27 0 -26 -5 -28 -57 -25 -62 3 -73 -6 -73 -61 l0 -50 -36 3 -36 3 -2
135 c-2 74 -1 141 2 148 3 9 31 12 111 10 l106 -3 3 -27z m200 -120 l3 -148
-35 0 -34 0 -4 138 c-3 75 -2 143 0 150 3 8 17 12 36 10 l31 -3 3 -147z m372
134 c41 -20 48 -42 20 -59 -16 -11 -26 -10 -54 4 -48 22 -94 9 -119 -36 -17
-28 -18 -38 -8 -70 10 -35 27 -50 75 -65 11 -4 34 2 54 14 l35 21 21 -20 20
-21 -20 -21 c-66 -66 -213 -32 -250 57 -20 47 -17 83 9 134 38 75 136 103 217
62z m391 8 c6 -46 7 -45 -73 -48 l-78 -3 0 -29 c0 -29 0 -29 68 -32 64 -3 67
-4 67 -28 0 -24 -3 -25 -67 -28 -68 -3 -68 -3 -68 -32 l0 -30 80 0 80 0 0 -30
0 -30 -115 0 -115 0 0 144 c0 106 3 146 13 149 24 10 207 7 208 -3z"/>
<path d="M7903 1813 l-51 -128 54 -3 c30 -2 77 -2 103 0 l49 3 -45 120 c-25
66 -48 123 -52 128 -4 4 -30 -50 -58 -120z"/>
<path d="M9466 1823 c-27 -65 -51 -124 -53 -130 -4 -10 19 -13 96 -13 70 0
101 4 101 12 0 14 -81 230 -90 241 -4 4 -28 -45 -54 -110z"/>
<path d="M6378 2050 c-16 -10 -18 -28 -18 -135 l0 -125 56 0 c101 0 148 39
147 124 -1 52 -24 100 -58 122 -31 20 -104 28 -127 14z"/>
<path d="M8800 2051 c-32 -9 -38 -45 -35 -195 l1 -111 60 -3 c68 -3 116 17
148 61 43 59 14 192 -50 228 -36 21 -91 29 -124 20z"/>
<path d="M10173 2050 c-22 -9 -23 -14 -23 -135 l0 -125 51 0 c121 0 175 76
135 190 -9 26 -24 41 -56 58 -47 23 -71 26 -107 12z"/>
<path d="M12974 2050 c-18 -7 -22 -20 -27 -90 -4 -44 -4 -101 0 -126 l6 -44
54 0 c93 0 143 41 143 118 0 68 -23 110 -72 132 -46 21 -71 24 -104 10z"/>
<path d="M8041 817 c-6 -15 -15 -38 -21 -52 -9 -24 -8 -25 30 -25 22 0 40 4
40 9 0 5 -9 28 -19 52 l-20 43 -10 -27z"/>
<path d="M10025 848 c-33 -18 -45 -40 -45 -83 0 -31 6 -47 25 -65 56 -52 145
-15 145 61 0 51 -8 67 -41 84 -33 18 -57 18 -84 3z"/>
</g>
</svg>
